<svg id="visual" viewBox="0 0 900 900" width="900" height="900" xmlns="http://www.w3.org/2000/svg" xmlns:xlink="http://www.w3.org/1999/xlink" version="1.1"><path d="M0 217L82 217L82 199L164 199L164 316L245 316L245 343L327 343L327 127L409 127L409 253L491 253L491 262L573 262L573 172L655 172L655 208L736 208L736 127L818 127L818 370L900 370L900 325L900 0L900 0L818 0L818 0L736 0L736 0L655 0L655 0L573 0L573 0L491 0L491 0L409 0L409 0L327 0L327 0L245 0L245 0L164 0L164 0L82 0L82 0L0 0Z" fill="#85ffd6"></path><path d="M0 343L82 343L82 307L164 307L164 388L245 388L245 424L327 424L327 253L409 253L409 334L491 334L491 325L573 325L573 334L655 334L655 289L736 289L736 235L818 235L818 469L900 469L900 406L900 323L900 368L818 368L818 125L736 125L736 206L655 206L655 170L573 170L573 260L491 260L491 251L409 251L409 125L327 125L327 341L245 341L245 314L164 314L164 197L82 197L82 215L0 215Z" fill="#a3ea9d"></path><path d="M0 550L82 550L82 478L164 478L164 604L245 604L245 523L327 523L327 352L409 352L409 433L491 433L491 505L573 505L573 496L655 496L655 397L736 397L736 343L818 343L818 631L900 631L900 505L900 404L900 467L818 467L818 233L736 233L736 287L655 287L655 332L573 332L573 323L491 323L491 332L409 332L409 251L327 251L327 422L245 422L245 386L164 386L164 305L82 305L82 341L0 341Z" fill="#c3d06e"></path><path d="M0 649L82 649L82 604L164 604L164 721L245 721L245 568L327 568L327 496L409 496L409 559L491 559L491 559L573 559L573 586L655 586L655 487L736 487L736 469L818 469L818 676L900 676L900 595L900 503L900 629L818 629L818 341L736 341L736 395L655 395L655 494L573 494L573 503L491 503L491 431L409 431L409 350L327 350L327 521L245 521L245 602L164 602L164 476L82 476L82 548L0 548Z" fill="#dfb253"></path><path d="M0 748L82 748L82 658L164 658L164 775L245 775L245 685L327 685L327 568L409 568L409 631L491 631L491 685L573 685L573 694L655 694L655 595L736 595L736 586L818 586L818 775L900 775L900 712L900 593L900 674L818 674L818 467L736 467L736 485L655 485L655 584L573 584L573 557L491 557L491 557L409 557L409 494L327 494L327 566L245 566L245 719L164 719L164 602L82 602L82 647L0 647Z" fill="#f39054"></path><path d="M0 901L82 901L82 901L164 901L164 901L245 901L245 901L327 901L327 901L409 901L409 901L491 901L491 901L573 901L573 901L655 901L655 901L736 901L736 901L818 901L818 901L900 901L900 901L900 710L900 773L818 773L818 584L736 584L736 593L655 593L655 692L573 692L573 683L491 683L491 629L409 629L409 566L327 566L327 683L245 683L245 773L164 773L164 656L82 656L82 746L0 746Z" fill="#f96c6c"></path></svg>